<?xml version="1.0" encoding="UTF-8" standalone="no"?> <!-- Created with Vectornator for iOS (http://vectornator.io/) --><!DOCTYPE svg PUBLIC "-//W3C//DTD SVG 1.1//EN" "http://www.w3.org/Graphics/SVG/1.1/DTD/svg11.dtd">
<svg height="100%" style="fill-rule:nonzero;clip-rule:evenodd;stroke-linecap:round;stroke-linejoin:round;" xmlns:xlink="http://www.w3.org/1999/xlink" xmlns="http://www.w3.org/2000/svg" xml:space="preserve" width="100%" xmlns:vectornator="http://vectornator.io" version="1.1" viewBox="0 0 566.93 566.93">
<metadata>
<vectornator:setting key="DimensionsVisible" value="0"/>
<vectornator:setting key="PencilOnly" value="0"/>
<vectornator:setting key="SnapToPoints" value="0"/>
<vectornator:setting key="OutlineMode" value="0"/>
<vectornator:setting key="CMYKEnabledKey" value="0"/>
<vectornator:setting key="RulersVisible" value="1"/>
<vectornator:setting key="SnapToEdges" value="0"/>
<vectornator:setting key="GuidesVisible" value="0"/>
<vectornator:setting key="DisplayWhiteBackground" value="0"/>
<vectornator:setting key="doHistoryDisabled" value="0"/>
<vectornator:setting key="SnapToGuides" value="1"/>
<vectornator:setting key="TimeLapseWatermarkDisabled" value="0"/>
<vectornator:setting key="Units" value="Points"/>
<vectornator:setting key="DynamicGuides" value="1"/>
<vectornator:setting key="IsolateActiveLayer" value="0"/>
<vectornator:setting key="SnapToGrid" value="0"/>
</metadata>
<defs>
<linearGradient y1="287.14" id="LinearGradient" x1="65.51" y2="287.14" x2="498.226" gradientUnits="userSpaceOnUse" gradientTransform="matrix(1 0 0 1 0 0)">
<stop stop-color="#34b2f6" offset="0"/>
<stop stop-color="#0073aa" offset="0.988768"/>
</linearGradient>
</defs>
<g id="Untitled" vectornator:layerName="Untitled">
<path d="M65.51+196.1L137+196.1L137+228.36L137.74+228.36C143.74+216.213+151.15+206.917+159.97+200.47C168.423+194.27+179.323+191.17+192.67+191.17C200.061+191.149+207.418+192.159+214.53+194.17L214.53+262.09C210.722+260.493+206.784+259.225+202.76+258.3C196.918+257.432+191.015+257.051+185.11+257.16C155.197+256.653+140.12+276.96+139.88+318.08L139.88+397.79L65.51+397.79L65.51+196.1ZM191.23+191.54L263.1+191.54L263.1+213.74L263.84+213.74C266.25+210.116+269.021+206.746+272.11+203.68C275.078+200.243+278.625+197.352+282.59+195.14C290.67+189.713+303.473+186.867+321+186.6C335.087+186.853+347.4+189.953+357.94+195.9C368.086+202.2+376.69+210.695+383.12+220.76C396.453+242.52+403.12+266.747+403.12+293.44C403.1+305.54+401.932+317.611+399.63+329.49C397.25+341.445+392.767+352.882+386.39+363.27C374.13+385.757+351.953+397.457+319.86+398.37C296.447+398.117+278.61+389.043+266.35+371.15L265.61+371.15L265.61+458.53L191.23+458.53L191.23+191.54ZM263+292.77C263.014+298.638+263.543+304.494+264.58+310.27C265.498+315.851+267.293+321.251+269.9+326.27C274.893+336.937+284.29+342.387+298.09+342.62C305.31+342.62+311.353+340.907+316.22+337.48C320.704+334.815+324.33+330.922+326.67+326.26C331.093+315.662+333.305+304.273+333.17+292.79C333.338+280.873+331.129+269.043+326.67+257.99C324.329+253.329+320.703+249.436+316.22+246.77C311.36+243.857+305.317+242.4+298.09+242.4C284.29+242.653+274.893+247.853+269.9+258C267.293+263.019+265.497+268.419+264.58+274C263.53+280.201+263.001+286.48+263+292.77ZM498.17+169.62L423.82+169.62L423.82+115.75L498.17+115.75L498.17+169.62ZM423.82+191.46L498.17+191.46L498.17+393.18L423.82+393.18L423.82+191.46ZM288.713+455.34C289.061+456.964+289.757+458.24+291.381+458.24C292.599+458.24+294.745+458.182+296.079+457.95L301.879+428.95C295.267+428.95+295.267+428.95+295.093+430.226L294.281+437.302C293.643+442.348+293.121+451.222+293.121+451.222L293.005+451.222C293.005+451.222+292.483+442.348+291.845+437.36L290.743+428.95C284.769+428.95+283.609+428.95+283.609+429.994C283.609+430.226+283.667+430.516+283.725+430.864L288.713+455.34ZM317.616+421.642C317.616+425.238+318.834+426.282+320.748+426.282C323.01+426.282+324.17+424.426+324.17+421.352C324.228+418.22+323.532+417.118+321.154+417.118C318.718+417.118+317.616+418.974+317.616+421.642ZM324.17+428.95C318.892+428.95+317.616+428.95+317.616+431.792L317.616+457.95C324.112+457.95+324.17+457.95+324.17+456.79L324.17+428.95ZM342.633+457.95C349.187+457.95+349.187+457.95+349.187+456.79L349.187+435.446C350.057+434.808+351.101+434.518+351.797+434.518C352.377+434.518+353.131+434.576+353.943+434.982C354.465+433.532+354.581+432.024+354.581+431.27C354.581+429.298+353.827+428.37+350.695+428.37C347.505+428.37+344.721+429.588+342.633+430.98L342.633+457.95ZM372.638+434.402L372.638+450.352C372.638+455.514+373.508+458.53+378.612+458.53C380.816+458.53+383.89+458.182+383.89+455.398C383.89+454.122+383.658+453.136+383.484+452.324C382.382+452.846+381.512+453.078+380.468+453.078C379.076+453.078+379.076+451.57+379.076+450.236L379.076+434.402L382.556+434.402C383.774+434.402+383.832+433.88+383.832+428.95L379.076+428.95L379.076+418.51C373.856+418.51+372.638+418.51+372.638+420.54L372.638+428.95L370.434+428.95C369.158+428.95+369.1+429.53+369.1+434.402L372.638+434.402ZM417.491+428.95C410.995+428.95+411.053+428.95+411.053+430.11L411.053+452.266C410.415+452.846+409.603+453.02+408.849+453.02C407.167+453.02+406.819+452.092+406.819+450.178L406.819+428.95C400.149+428.95+400.149+428.95+400.149+430.11L400.149+449.772C400.149+455.282+401.947+458.53+408.907+458.53C412.387+458.53+415.635+457.428+417.491+456.326L417.491+428.95ZM444.422+452.266C441.638+452.266+440.826+450.642+440.594+446.872C443.494+446.814+447.844+446.64+450.686+446.06C451.266+443.798+451.498+440.608+451.498+437.824C451.498+431.096+448.714+428.37+444.074+428.37C438.68+428.37+433.866+430.806+433.866+444.842C433.866+455.862+437.578+458.53+442.856+458.53C447.38+458.53+451.092+457.254+451.092+454.934C451.092+453.6+450.918+451.802+450.57+450.642C448.54+451.628+446.51+452.266+444.422+452.266ZM443.262+433.938C444.712+433.938+445.234+434.576+445.234+438.288C445.234+439.216+445.176+440.608+444.944+441.304C444.074+441.71+442.218+441.826+440.594+441.826C440.768+436.49+441.464+433.938+443.262+433.938ZM474.485+415.32C469.265+415.32+468.047+415.32+468.047+418.162L468.047+457.95C474.485+457.95+474.485+457.95+474.485+456.79L474.485+415.32ZM498.226+415.32C493.006+415.32+491.788+415.32+491.788+418.162L491.788+457.95C498.226+457.95+498.226+457.95+498.226+456.79L498.226+415.32Z" opacity="1" fill="url(#LinearGradient)"/>
</g>
</svg>
