<?xml version="1.0" encoding="UTF-8" standalone="no"?> <!-- Created with Vectornator for iOS (http://vectornator.io/) --><!DOCTYPE svg PUBLIC "-//W3C//DTD SVG 1.1//EN" "http://www.w3.org/Graphics/SVG/1.1/DTD/svg11.dtd">
<svg height="100%" style="fill-rule:nonzero;clip-rule:evenodd;stroke-linecap:round;stroke-linejoin:round;" xmlns:xlink="http://www.w3.org/1999/xlink" xmlns="http://www.w3.org/2000/svg" xml:space="preserve" width="100%" xmlns:vectornator="http://vectornator.io" version="1.1" viewBox="0 0 566.93 566.93">
<metadata>
<vectornator:setting key="DimensionsVisible" value="0"/>
<vectornator:setting key="PencilOnly" value="0"/>
<vectornator:setting key="SnapToPoints" value="0"/>
<vectornator:setting key="OutlineMode" value="0"/>
<vectornator:setting key="CMYKEnabledKey" value="0"/>
<vectornator:setting key="RulersVisible" value="1"/>
<vectornator:setting key="SnapToEdges" value="0"/>
<vectornator:setting key="GuidesVisible" value="0"/>
<vectornator:setting key="DisplayWhiteBackground" value="0"/>
<vectornator:setting key="doHistoryDisabled" value="0"/>
<vectornator:setting key="SnapToGuides" value="1"/>
<vectornator:setting key="TimeLapseWatermarkDisabled" value="0"/>
<vectornator:setting key="Units" value="Points"/>
<vectornator:setting key="DynamicGuides" value="1"/>
<vectornator:setting key="IsolateActiveLayer" value="0"/>
<vectornator:setting key="SnapToGrid" value="0"/>
</metadata>
<defs>
<linearGradient y1="294.48" id="LinearGradient" x1="65.51" y2="294.48" x2="214.53" gradientUnits="userSpaceOnUse" gradientTransform="matrix(1 0 0 1 0 0)">
<stop stop-color="#ffffff" offset="0"/>
<stop stop-color="#ffffff" offset="1"/>
</linearGradient>
<linearGradient y1="322.565" id="LinearGradient_2" x1="191.23" y2="322.565" x2="403.12" gradientUnits="userSpaceOnUse" gradientTransform="matrix(1 0 0 1 0 0)">
<stop stop-color="#ffffff" offset="0"/>
<stop stop-color="#ffffff" offset="1"/>
</linearGradient>
<linearGradient y1="254.465" id="LinearGradient_3" x1="423.82" y2="254.465" x2="498.17" gradientUnits="userSpaceOnUse" gradientTransform="matrix(1 0 0 1 0 0)">
<stop stop-color="#ffffff" offset="0"/>
<stop stop-color="#ffffff" offset="1"/>
</linearGradient>
<linearGradient y1="441.435" id="LinearGradient_4" x1="283.609" y2="441.435" x2="301.879" gradientUnits="userSpaceOnUse" gradientTransform="matrix(1 0 0 1 0 0)">
<stop stop-color="#ffffff" offset="0"/>
<stop stop-color="#ffffff" offset="1"/>
</linearGradient>
<linearGradient y1="435.374" id="LinearGradient_5" x1="317.616" y2="435.374" x2="324.173" gradientUnits="userSpaceOnUse" gradientTransform="matrix(1 0 0 1 0 0)">
<stop stop-color="#ffffff" offset="0"/>
<stop stop-color="#ffffff" offset="1"/>
</linearGradient>
<linearGradient y1="441" id="LinearGradient_6" x1="342.633" y2="441" x2="354.581" gradientUnits="userSpaceOnUse" gradientTransform="matrix(1 0 0 1 0 0)">
<stop stop-color="#ffffff" offset="0"/>
<stop stop-color="#ffffff" offset="1"/>
</linearGradient>
<linearGradient y1="436.36" id="LinearGradient_7" x1="369.1" y2="436.36" x2="383.89" gradientUnits="userSpaceOnUse" gradientTransform="matrix(1 0 0 1 0 0)">
<stop stop-color="#ffffff" offset="0"/>
<stop stop-color="#ffffff" offset="1"/>
</linearGradient>
<linearGradient y1="441.58" id="LinearGradient_8" x1="400.149" y2="441.58" x2="417.491" gradientUnits="userSpaceOnUse" gradientTransform="matrix(1 0 0 1 0 0)">
<stop stop-color="#ffffff" offset="0"/>
<stop stop-color="#ffffff" offset="1"/>
</linearGradient>
<linearGradient y1="441.29" id="LinearGradient_9" x1="433.866" y2="441.29" x2="451.498" gradientUnits="userSpaceOnUse" gradientTransform="matrix(1 0 0 1 0 0)">
<stop stop-color="#ffffff" offset="0"/>
<stop stop-color="#ffffff" offset="1"/>
</linearGradient>
<linearGradient y1="434.475" id="LinearGradient_10" x1="468.047" y2="434.475" x2="474.485" gradientUnits="userSpaceOnUse" gradientTransform="matrix(1 0 0 1 0 0)">
<stop stop-color="#ffffff" offset="0"/>
<stop stop-color="#ffffff" offset="1"/>
</linearGradient>
<linearGradient y1="434.475" id="LinearGradient_11" x1="491.788" y2="434.475" x2="498.226" gradientUnits="userSpaceOnUse" gradientTransform="matrix(1 0 0 1 0 0)">
<stop stop-color="#ffffff" offset="0"/>
<stop stop-color="#ffffff" offset="1"/>
</linearGradient>
</defs>
<g id="Untitled" vectornator:layerName="Untitled">
<g opacity="1">
<path d="M65.51+196.1L137+196.1L137+228.36L137.74+228.36C143.74+216.213+151.15+206.917+159.97+200.47C168.423+194.27+179.323+191.17+192.67+191.17C200.061+191.149+207.418+192.159+214.53+194.17L214.53+262.09C210.722+260.493+206.784+259.225+202.76+258.3C196.918+257.432+191.015+257.051+185.11+257.16C155.197+256.653+140.12+276.96+139.88+318.08L139.88+397.79L65.51+397.79L65.51+196.1Z" fill-rule="evenodd" fill="url(#LinearGradient)" opacity="1"/>
<path d="M191.23+191.54L263.1+191.54L263.1+213.74L263.84+213.74C266.25+210.116+269.021+206.746+272.11+203.68C275.078+200.243+278.625+197.352+282.59+195.14C290.67+189.713+303.473+186.867+321+186.6C335.087+186.853+347.4+189.953+357.94+195.9C368.086+202.2+376.69+210.695+383.12+220.76C396.453+242.52+403.12+266.747+403.12+293.44C403.1+305.54+401.932+317.611+399.63+329.49C397.25+341.445+392.767+352.882+386.39+363.27C374.13+385.757+351.953+397.457+319.86+398.37C296.447+398.117+278.61+389.043+266.35+371.15L265.61+371.15L265.61+458.53L191.23+458.53L191.23+191.54ZM263+292.77C263.014+298.638+263.543+304.494+264.58+310.27C265.498+315.851+267.293+321.251+269.9+326.27C274.893+336.937+284.29+342.387+298.09+342.62C305.31+342.62+311.353+340.907+316.22+337.48C320.704+334.815+324.33+330.922+326.67+326.26C331.093+315.662+333.305+304.273+333.17+292.79C333.338+280.873+331.129+269.043+326.67+257.99C324.329+253.329+320.703+249.436+316.22+246.77C311.36+243.857+305.317+242.4+298.09+242.4C284.29+242.653+274.893+247.853+269.9+258C267.293+263.019+265.497+268.419+264.58+274C263.53+280.201+263.001+286.48+263+292.77Z" fill-rule="evenodd" fill="url(#LinearGradient_2)" opacity="1"/>
<path d="M498.17+169.62L423.82+169.62L423.82+115.75L498.17+115.75L498.17+169.62ZM423.82+191.46L498.17+191.46L498.17+393.18L423.82+393.18L423.82+191.46Z" fill-rule="evenodd" fill="url(#LinearGradient_3)" opacity="1"/>
<g opacity="1">
<path d="M288.713+453.18C289.061+454.804+289.757+456.08+291.381+456.08C292.599+456.08+294.745+456.022+296.079+455.79L301.879+426.79C295.267+426.79+295.267+426.79+295.093+428.066L294.281+435.142C293.643+440.188+293.121+449.062+293.121+449.062L293.005+449.062C293.005+449.062+292.483+440.188+291.845+435.2L290.743+426.79C284.769+426.79+283.609+426.79+283.609+427.834C283.609+428.066+283.667+428.356+283.725+428.704L288.713+453.18Z" fill-rule="evenodd" fill="url(#LinearGradient_4)" opacity="1"/>
<path d="M317.616+419.482C317.616+423.078+318.834+424.122+320.748+424.122C323.01+424.122+324.17+422.266+324.17+419.192C324.228+416.06+323.532+414.958+321.154+414.958C318.718+414.958+317.616+416.814+317.616+419.482ZM324.17+426.79C318.892+426.79+317.616+426.79+317.616+429.632L317.616+455.79C324.112+455.79+324.17+455.79+324.17+454.63L324.17+426.79Z" fill-rule="evenodd" fill="url(#LinearGradient_5)" opacity="1"/>
<path d="M342.633+455.79C349.187+455.79+349.187+455.79+349.187+454.63L349.187+433.286C350.057+432.648+351.101+432.358+351.797+432.358C352.377+432.358+353.131+432.416+353.943+432.822C354.465+431.372+354.581+429.864+354.581+429.11C354.581+427.138+353.827+426.21+350.695+426.21C347.505+426.21+344.721+427.428+342.633+428.82L342.633+455.79Z" fill-rule="evenodd" fill="url(#LinearGradient_6)" opacity="1"/>
<path d="M372.638+432.242L372.638+448.192C372.638+453.354+373.508+456.37+378.612+456.37C380.816+456.37+383.89+456.022+383.89+453.238C383.89+451.962+383.658+450.976+383.484+450.164C382.382+450.686+381.512+450.918+380.468+450.918C379.076+450.918+379.076+449.41+379.076+448.076L379.076+432.242L382.556+432.242C383.774+432.242+383.832+431.72+383.832+426.79L379.076+426.79L379.076+416.35C373.856+416.35+372.638+416.35+372.638+418.38L372.638+426.79L370.434+426.79C369.158+426.79+369.1+427.37+369.1+432.242L372.638+432.242Z" fill-rule="evenodd" fill="url(#LinearGradient_7)" opacity="1"/>
<path d="M417.491+426.79C410.995+426.79+411.053+426.79+411.053+427.95L411.053+450.106C410.415+450.686+409.603+450.86+408.849+450.86C407.167+450.86+406.819+449.932+406.819+448.018L406.819+426.79C400.149+426.79+400.149+426.79+400.149+427.95L400.149+447.612C400.149+453.122+401.947+456.37+408.907+456.37C412.387+456.37+415.635+455.268+417.491+454.166L417.491+426.79Z" fill-rule="evenodd" fill="url(#LinearGradient_8)" opacity="1"/>
<path d="M444.422+450.106C441.638+450.106+440.826+448.482+440.594+444.712C443.494+444.654+447.844+444.48+450.686+443.9C451.266+441.638+451.498+438.448+451.498+435.664C451.498+428.936+448.714+426.21+444.074+426.21C438.68+426.21+433.866+428.646+433.866+442.682C433.866+453.702+437.578+456.37+442.856+456.37C447.38+456.37+451.092+455.094+451.092+452.774C451.092+451.44+450.918+449.642+450.57+448.482C448.54+449.468+446.51+450.106+444.422+450.106ZM443.262+431.778C444.712+431.778+445.234+432.416+445.234+436.128C445.234+437.056+445.176+438.448+444.944+439.144C444.074+439.55+442.218+439.666+440.594+439.666C440.768+434.33+441.464+431.778+443.262+431.778Z" fill-rule="evenodd" fill="url(#LinearGradient_9)" opacity="1"/>
<path d="M474.485+413.16C469.265+413.16+468.047+413.16+468.047+416.002L468.047+455.79C474.485+455.79+474.485+455.79+474.485+454.63L474.485+413.16Z" fill-rule="evenodd" fill="url(#LinearGradient_10)" opacity="1"/>
<path d="M498.226+413.16C493.006+413.16+491.788+413.16+491.788+416.002L491.788+455.79C498.226+455.79+498.226+455.79+498.226+454.63L498.226+413.16Z" fill-rule="evenodd" fill="url(#LinearGradient_11)" opacity="1"/>
</g>
</g>
</g>
</svg>
