<?xml version="1.0" encoding="UTF-8" standalone="no"?> <!-- Created with Vectornator for iOS (http://vectornator.io/) --><!DOCTYPE svg PUBLIC "-//W3C//DTD SVG 1.1//EN" "http://www.w3.org/Graphics/SVG/1.1/DTD/svg11.dtd">
<svg height="100%" style="fill-rule:nonzero;clip-rule:evenodd;stroke-linecap:round;stroke-linejoin:round;" xmlns:xlink="http://www.w3.org/1999/xlink" xmlns="http://www.w3.org/2000/svg" xml:space="preserve" width="100%" xmlns:vectornator="http://vectornator.io" version="1.1" viewBox="0 0 566.93 566.93">
<metadata>
<vectornator:setting key="DimensionsVisible" value="0"/>
<vectornator:setting key="PencilOnly" value="0"/>
<vectornator:setting key="SnapToPoints" value="0"/>
<vectornator:setting key="OutlineMode" value="0"/>
<vectornator:setting key="CMYKEnabledKey" value="0"/>
<vectornator:setting key="RulersVisible" value="1"/>
<vectornator:setting key="SnapToEdges" value="0"/>
<vectornator:setting key="GuidesVisible" value="0"/>
<vectornator:setting key="DisplayWhiteBackground" value="0"/>
<vectornator:setting key="doHistoryDisabled" value="0"/>
<vectornator:setting key="SnapToGuides" value="1"/>
<vectornator:setting key="TimeLapseWatermarkDisabled" value="0"/>
<vectornator:setting key="Units" value="Points"/>
<vectornator:setting key="DynamicGuides" value="1"/>
<vectornator:setting key="IsolateActiveLayer" value="0"/>
<vectornator:setting key="SnapToGrid" value="0"/>
</metadata>
<defs>
<linearGradient y1="400" id="LinearGradient" x1="0" y2="400" x2="800.1" gradientUnits="userSpaceOnUse" gradientTransform="matrix(0.708663 0 0 0.708663 0 0)">
<stop stop-color="#34b2f6" offset="0.0218447"/>
<stop stop-color="#0073aa" offset="1"/>
</linearGradient>
</defs>
<g id="Ebene 1" vectornator:layerName="Ebene 1">
<path d="M452.41+0L114.52+0C51.2363+0+0+51.2363+0+114.52L0+452.481C0+515.694+51.2363+566.93+114.52+566.93L452.481+566.93C515.694+566.93+567.001+515.694+567.001+452.41L567.001+114.52C566.93+51.2363+515.694+0+452.41+0Z" fill-rule="evenodd" fill="url(#LinearGradient)" opacity="1"/>
<g opacity="1">
<path d="M350.508+283.743L350.506+283.393C345.008+210.368+283.193+177.149+228.036+177.149C227.881+177.152+227.724+177.157+227.572+177.149C184.51+177.149+148.332+189.601+125.683+212.221C107.357+230.524+98.0458+254.593+97.9851+283.748C88.3696+285.783+81.0925+293.754+81.0925+303.2L81.0925+346.38C81.0925+356.608+89.5056+364.933+100.185+366.127L100.185+375.735C100.185+380.393+103.961+384.169+108.619+384.169L167.6+384.169C141.881+391.05+121.537+410.821+116.345+435.946L109.767+467.404C109.261+469.933+109.936+472.463+111.538+474.403C113.14+476.428+115.502+477.524+118.032+477.524L330.477+477.524C333.006+477.524+335.367+476.428+336.97+474.403C338.572+472.463+339.247+469.933+338.741+467.404L332.163+435.946C326.934+410.645+306.271+390.657+280.296+383.994C300.452+360.97+313.946+327.742+313.946+299.068C313.946+290.044+312.513+281.272+309.898+273.092C309.814+272.502+309.644+271.995+309.392+271.489C297.585+236.321+263.935+210.936+224.296+210.936C174.79+210.936+134.562+250.49+134.562+299.068C134.562+299.489+134.562+299.995+134.646+300.502C134.908+322.462+143.079+346.853+155.902+367.301L117.052+367.301L117.052+364.792C124.848+361.757+130.345+354.661+130.345+346.38L130.345+303.2C130.345+294.239+123.768+286.663+114.841+284.162L114.841+284.027C114.841+259.385+122.501+239.24+137.601+224.156C157.067+204.714+189.006+194.015+227.588+194.015C227.728+194.015+227.876+194.015+228.012+194.015C275.653+194.015+328.994+222.36+333.664+284.027L333.664+284.163C324.739+286.665+318.163+294.24+318.163+303.2L318.163+346.38C318.163+357.429+327.946+366.368+339.922+366.368L345.741+366.368C357.632+366.368+367.415+357.429+367.415+346.38L367.415+303.2C367.415+293.749+360.131+285.772+350.508+283.743ZM151.598+304.887C167.201+298.73+209.2+279.248+225.899+245.092C236.104+261.706+256.344+281.02+295.224+283.043C296.404+288.188+297.078+293.585+297.078+299.068C297.078+328.417+279.79+364.682+256.85+383.404C256.682+383.573+256.428+383.742+256.26+383.909C235.699+400.491+213.356+400.435+192.734+384.169L207.265+384.169C211.923+384.169+215.699+380.393+215.699+375.735C215.699+371.078+211.923+367.301+207.265+367.301L176.384+367.301C162.753+349.4+153.169+325.866+151.598+304.887Z" fill-rule="evenodd" fill="#ffffff" opacity="1"/>
<path d="M407.475+89.4063C364.296+89.4063+329.126+119.852+329.126+157.213C329.126+175.177+337.392+192.466+352.066+205.117L352.066+235.899C352.066+239.273+354.09+242.309+357.21+243.658C358.307+244.08+359.404+244.333+360.5+244.333C362.609+244.333+364.717+243.489+366.403+241.971L386.476+222.574C393.392+224.177+400.476+225.02+407.475+225.02C450.741+225.02+485.909+194.659+485.909+157.213C485.909+119.852+450.741+89.4063+407.475+89.4063ZM439.726+185.133L375.301+185.133C370.643+185.133+366.867+181.357+366.867+176.7C366.867+172.042+370.643+168.266+375.301+168.266L439.726+168.266C444.384+168.266+448.161+172.042+448.161+176.7C448.161+181.357+444.384+185.133+439.726+185.133ZM439.726+146.824L375.301+146.824C370.643+146.824+366.867+143.048+366.867+138.389C366.867+133.732+370.643+129.956+375.301+129.956L439.726+129.956C444.384+129.956+448.161+133.732+448.161+138.389C448.161+143.048+444.384+146.824+439.726+146.824Z" fill-rule="evenodd" fill="#ffffff" opacity="1"/>
</g>
</g>
</svg>
