<?xml version="1.0" encoding="UTF-8" standalone="no"?> <!-- Created with Vectornator for iOS (http://vectornator.io/) --><!DOCTYPE svg PUBLIC "-//W3C//DTD SVG 1.1//EN" "http://www.w3.org/Graphics/SVG/1.1/DTD/svg11.dtd">
<svg height="100%" style="fill-rule:nonzero;clip-rule:evenodd;stroke-linecap:round;stroke-linejoin:round;" xmlns:xlink="http://www.w3.org/1999/xlink" xmlns="http://www.w3.org/2000/svg" xml:space="preserve" width="100%" xmlns:vectornator="http://vectornator.io" version="1.1" viewBox="0 0 566.93 566.93">
<metadata>
<vectornator:setting key="DimensionsVisible" value="0"/>
<vectornator:setting key="PencilOnly" value="0"/>
<vectornator:setting key="SnapToPoints" value="0"/>
<vectornator:setting key="OutlineMode" value="0"/>
<vectornator:setting key="CMYKEnabledKey" value="0"/>
<vectornator:setting key="RulersVisible" value="1"/>
<vectornator:setting key="SnapToEdges" value="0"/>
<vectornator:setting key="GuidesVisible" value="0"/>
<vectornator:setting key="DisplayWhiteBackground" value="0"/>
<vectornator:setting key="doHistoryDisabled" value="0"/>
<vectornator:setting key="SnapToGuides" value="1"/>
<vectornator:setting key="TimeLapseWatermarkDisabled" value="0"/>
<vectornator:setting key="Units" value="Points"/>
<vectornator:setting key="DynamicGuides" value="1"/>
<vectornator:setting key="IsolateActiveLayer" value="0"/>
<vectornator:setting key="SnapToGrid" value="0"/>
</metadata>
<defs>
<linearGradient y1="400" id="LinearGradient" x1="0" y2="400" x2="800.1" gradientUnits="userSpaceOnUse" gradientTransform="matrix(0.708663 0 0 0.708663 0 0)">
<stop stop-color="#34b2f6" offset="0.0218447"/>
<stop stop-color="#0073aa" offset="1"/>
</linearGradient>
</defs>
<g id="Ebene 1" vectornator:layerName="Ebene 1">
<path d="M452.41+0L114.52+0C51.2363+0+0+51.2363+0+114.52L0+452.481C0+515.694+51.2363+566.93+114.52+566.93L452.481+566.93C515.694+566.93+567.001+515.694+567.001+452.41L567.001+114.52C566.93+51.2363+515.694+0+452.41+0Z" fill-rule="evenodd" fill="url(#LinearGradient)" opacity="1"/>
<g opacity="1">
<path stroke="#d84800" fill-rule="evenodd" stroke-opacity="0" stroke-width="0.1" d="M266.481+81.4011C213.535+86.8614+167.235+109.736+133.71+146.999C105.28+178.507+88.8872+213.851+82.4627+256.944C80.6905+269.192+80.6905+297.601+82.5366+310.07C88.9609+354.492+107.57+392.64+137.919+423.927C190.939+478.53+267.514+498.748+340.768+477.497C373.85+467.904+404.125+449.531+429.011+423.927C459.508+392.492+478.264+353.901+484.467+309.702C486.24+296.937+486.24+269.266+484.393+256.944C477.674+210.825+458.475+172.087+426.721+140.358C395.338+108.998+357.087+89.8129+311.895+82.8031C304.437+81.6225+273.496+80.6632+266.481+81.4011ZM311.599+91.9528C387.806+103.39+449.909+158.436+470.289+232.593C486.978+293.395+472.283+359.435+431.299+408.209C399.695+445.694+353.469+470.265+304.363+475.652C295.133+476.685+271.797+476.685+262.567+475.652C252.229+474.545+237.608+471.593+228.009+468.642C134.08+440.234+76.4814+347.408+92.6532+250.819C95.6807+232.446+101.145+215.843+109.933+197.912C132.824+151.353+173.438+116.008+222.766+99.7744C238.495+94.6091+250.383+92.2479+270.173+90.2557C277.262+89.5178+302.369+90.5508+311.599+91.9528Z" fill="#ffffff" stroke-linecap="butt" opacity="1" stroke-linejoin="miter"/>
<path stroke="#d84800" fill-rule="evenodd" stroke-opacity="0" stroke-width="0.1" d="M270.912+110.474C201.056+115.639+140.799+162.42+118.868+228.535C109.12+258.124+107.496+291.181+114.437+322.098C128.246+383.786+177.278+434.699+238.347+450.711C255.552+455.212+263.232+456.098+283.465+456.098C303.698+456.098+311.378+455.212+328.583+450.711C369.05+440.086+405.233+413.817+428.789+377.956C443.041+356.263+452.05+331.543+455.594+304.537C457.071+293.026+456.702+266.683+454.856+255.837C451.754+238.053+446.881+222.779+438.98+206.768C407.891+143.531+341.137+105.308+270.912+110.474ZM331.464+146.704C351.402+150.246+369.271+165.962+376.36+186.328C378.28+191.936+378.65+194.002+378.945+202.709C379.24+211.195+379.019+213.703+377.689+218.942C373.111+237.389+360.189+252.663+343.204+259.748C338.552+261.739+333.309+263.289+333.309+262.772C333.309+262.625+334.417+260.19+335.82+257.46C346.011+237.242+346.011+212.449+335.82+192.305C327.698+176.071+311.156+161.904+294.173+156.665C291.957+155.927+289.594+155.189+289.003+154.968C287.452+154.451+294.69+150.836+301.926+148.475C311.23+145.449+320.756+144.859+331.464+146.704ZM286.418+167.734C309.31+173.932+326.368+192.305+330.356+215.032C331.685+222.485+330.947+235.545+328.879+242.186C323.341+259.6+312.633+271.774+296.166+279.449C288.117+283.212+281.249+284.614+271.429+284.614C245.214+284.614+223.43+268.602+214.938+243.071C212.87+236.873+212.649+235.397+212.649+225.953C212.575+217.245+212.87+214.736+214.274+209.719C220.845+187.139+239.011+170.758+262.272+166.553C267.219+165.594+281.249+166.331+286.418+167.734ZM378.723+269.118C400.95+276.129+414.463+293.1+420.445+321.508C421.995+329.109+423.915+350.138+423.177+352.056C422.734+353.089+420.962+353.237+409.737+353.237C402.649+353.237+396.815+353.015+396.815+352.795C396.815+349.695+394.082+335.381+392.384+329.699C385.073+305.053+369.124+286.458+350.515+280.924C348.743+280.408+347.339+279.67+347.339+279.375C347.339+279.006+349.703+276.055+352.656+272.734L357.973+266.683L365.8+267.126C370.748+267.347+375.4+268.086+378.723+269.118ZM252.967+306.75L272.019+325.567L278.813+318.926C282.579+315.31+292.326+305.791+300.449+297.822L315.218+283.286L320.756+283.95C336.042+285.868+350.589+292.51+361.148+302.545C373.702+314.425+380.864+329.182+383.893+349.179C385+356.558+385.443+378.251+384.556+382.679L384.114+384.966L271.945+384.966C192.637+384.966+159.703+384.745+159.407+384.154C158.374+382.605+158.079+362.239+158.965+354.122C163.322+312.728+185.844+288.008+222.913+284.024C230.076+283.286+226.975+280.998+252.967+306.75Z" fill="#ffffff" stroke-linecap="butt" opacity="1" stroke-linejoin="miter"/>
</g>
</g>
</svg>
