<?xml version="1.0" encoding="UTF-8" standalone="no"?> <!-- Created with Vectornator for iOS (http://vectornator.io/) --><!DOCTYPE svg PUBLIC "-//W3C//DTD SVG 1.1//EN" "http://www.w3.org/Graphics/SVG/1.1/DTD/svg11.dtd">
<svg height="100%" style="fill-rule:nonzero;clip-rule:evenodd;stroke-linecap:round;stroke-linejoin:round;" xmlns:xlink="http://www.w3.org/1999/xlink" xmlns="http://www.w3.org/2000/svg" xml:space="preserve" width="100%" xmlns:vectornator="http://vectornator.io" version="1.1" viewBox="0 0 566.93 566.93">
<metadata>
<vectornator:setting key="DimensionsVisible" value="0"/>
<vectornator:setting key="PencilOnly" value="0"/>
<vectornator:setting key="SnapToPoints" value="0"/>
<vectornator:setting key="OutlineMode" value="0"/>
<vectornator:setting key="CMYKEnabledKey" value="0"/>
<vectornator:setting key="RulersVisible" value="1"/>
<vectornator:setting key="SnapToEdges" value="0"/>
<vectornator:setting key="GuidesVisible" value="0"/>
<vectornator:setting key="DisplayWhiteBackground" value="0"/>
<vectornator:setting key="doHistoryDisabled" value="0"/>
<vectornator:setting key="SnapToGuides" value="1"/>
<vectornator:setting key="TimeLapseWatermarkDisabled" value="0"/>
<vectornator:setting key="Units" value="Points"/>
<vectornator:setting key="DynamicGuides" value="1"/>
<vectornator:setting key="IsolateActiveLayer" value="0"/>
<vectornator:setting key="SnapToGrid" value="0"/>
</metadata>
<defs>
<linearGradient y1="400" id="LinearGradient" x1="0" y2="400" x2="800.1" gradientUnits="userSpaceOnUse" gradientTransform="matrix(0.708663 0 0 0.708663 0 0)">
<stop stop-color="#34b2f6" offset="0.0218447"/>
<stop stop-color="#0073aa" offset="1"/>
</linearGradient>
</defs>
<g id="Ebene 1" vectornator:layerName="Ebene 1">
<path d="M452.41+0L114.52+0C51.2363+0+0+51.2363+0+114.52L0+452.481C0+515.694+51.2363+566.93+114.52+566.93L452.481+566.93C515.694+566.93+567.001+515.694+567.001+452.41L567.001+114.52C566.93+51.2363+515.694+0+452.41+0Z" fill-rule="evenodd" fill="url(#LinearGradient)" opacity="1"/>
<path d="M314.69+486.599L230.754+486.599L230.754+283.449L188.819+283.449L188.819+213.44L230.754+213.44L230.754+171.407C230.754+114.293+254.433+80.3309+321.707+80.3309L377.714+80.3309L377.714+150.348L342.705+150.348C316.517+150.348+314.785+160.132+314.785+178.392L314.69+213.432L378.111+213.432L370.689+283.441L314.69+283.441L314.69+486.599Z" fill-rule="evenodd" fill="#ffffff" opacity="1"/>
</g>
</svg>
