<?xml version="1.0" encoding="UTF-8" standalone="no"?> <!-- Created with Vectornator for iOS (http://vectornator.io/) --><!DOCTYPE svg PUBLIC "-//W3C//DTD SVG 1.1//EN" "http://www.w3.org/Graphics/SVG/1.1/DTD/svg11.dtd">
<svg height="100%" style="fill-rule:nonzero;clip-rule:evenodd;stroke-linecap:round;stroke-linejoin:round;" xmlns:xlink="http://www.w3.org/1999/xlink" xmlns="http://www.w3.org/2000/svg" xml:space="preserve" width="100%" xmlns:vectornator="http://vectornator.io" version="1.1" viewBox="0 0 566.93 566.93">
<metadata>
<vectornator:setting key="DimensionsVisible" value="0"/>
<vectornator:setting key="PencilOnly" value="0"/>
<vectornator:setting key="SnapToPoints" value="0"/>
<vectornator:setting key="OutlineMode" value="0"/>
<vectornator:setting key="CMYKEnabledKey" value="0"/>
<vectornator:setting key="RulersVisible" value="1"/>
<vectornator:setting key="SnapToEdges" value="0"/>
<vectornator:setting key="GuidesVisible" value="0"/>
<vectornator:setting key="DisplayWhiteBackground" value="0"/>
<vectornator:setting key="doHistoryDisabled" value="0"/>
<vectornator:setting key="SnapToGuides" value="1"/>
<vectornator:setting key="TimeLapseWatermarkDisabled" value="0"/>
<vectornator:setting key="Units" value="Points"/>
<vectornator:setting key="DynamicGuides" value="1"/>
<vectornator:setting key="IsolateActiveLayer" value="0"/>
<vectornator:setting key="SnapToGrid" value="0"/>
</metadata>
<defs>
<linearGradient y1="400" id="LinearGradient" x1="0" y2="400" x2="800.1" gradientUnits="userSpaceOnUse" gradientTransform="matrix(0.708663 0 0 0.708663 0 0)">
<stop stop-color="#34b2f6" offset="0.0218447"/>
<stop stop-color="#0073aa" offset="1"/>
</linearGradient>
</defs>
<g id="Untitled" vectornator:layerName="Untitled">
<path d="M452.41+0L114.52+0C51.2363+0+0+51.2363+0+114.52L0+452.481C0+515.694+51.2363+566.93+114.52+566.93L452.481+566.93C515.694+566.93+567.001+515.694+567.001+452.41L567.001+114.52C566.93+51.2363+515.694+0+452.41+0Z" fill-rule="evenodd" fill="url(#LinearGradient)" opacity="1"/>
<path d="M283.774+150.859C241.82+150.859+206.261+179.301+195.24+217.836C185.661+197.397+164.905+183.077+140.996+183.077C108.117+183.077+81.0896+210.105+81.0896+242.984C81.0896+275.863+108.117+302.903+140.996+302.903C164.905+302.903+185.661+288.574+195.24+268.131C206.261+306.669+241.82+335.121+283.774+335.121C325.417+335.121+360.795+307.098+372.098+268.995C381.852+288.974+402.354+302.903+425.923+302.903C458.799+302.903+485.84+275.863+485.84+242.984C485.84+210.105+458.799+183.077+425.923+183.077C402.354+183.077+381.852+196.997+372.098+216.973C360.795+178.872+325.417+150.859+283.774+150.859ZM283.774+186.026C315.444+186.026+340.744+211.314+340.744+242.984C340.744+274.654+315.444+299.954+283.774+299.954C252.104+299.954+226.816+274.654+226.816+242.984C226.816+211.314+252.104+186.026+283.774+186.026ZM140.996+218.244C154.872+218.244+165.749+229.108+165.749+242.984C165.749+256.859+154.872+267.736+140.996+267.736C127.121+267.736+116.256+256.859+116.256+242.984C116.256+229.108+127.121+218.244+140.996+218.244ZM425.923+218.244C439.797+218.244+450.675+229.108+450.675+242.984C450.675+256.859+439.797+267.736+425.923+267.736C412.046+267.736+401.182+256.859+401.182+242.984C401.182+229.108+412.046+218.244+425.923+218.244Z" fill-rule="evenodd" fill="#ffffff" opacity="1"/>
<path d="M123.24+362.911C122.07+362.911+121.565+363.578+121.565+364.749L121.565+413.231C121.565+414.401+122.07+415.062+123.24+415.062L124.582+415.062C125.752+415.062+126.412+414.401+126.412+413.231L126.412+372.971L152.879+414.045C152.994+414.227+153.119+414.344+153.245+414.475C153.282+414.521+153.308+414.568+153.351+414.607C153.463+414.71+153.587+414.763+153.708+414.827C153.776+414.863+153.828+414.912+153.904+414.941C153.956+414.959+154.012+414.948+154.066+414.962C154.253+415.008+154.444+415.058+154.668+415.058L156.002+415.058C157.172+415.058+157.678+414.401+157.678+413.228L157.678+364.748C157.678+363.578+157.172+362.91+156.002+362.91L154.668+362.91C153.498+362.91+152.83+363.578+152.83+364.748L152.83+405.012L126.364+363.936C126.273+363.796+126.164+363.711+126.063+363.603C125.757+363.17+125.273+362.911+124.583+362.911L123.24+362.911ZM441.023+363.577C439.851+363.577+440.355+364.245+440.355+365.416L440.355+381.969C440.355+383.639+440.519+384.805+440.519+384.805L440.355+384.805C440.355+384.805+437.178+377.452+428.318+377.452C418.624+377.452+411.765+385.142+412.099+396.511C412.099+407.876+418.286+415.737+428.148+415.737C437.676+415.737+440.853+408.043+440.853+408.043L441.023+408.043C441.023+408.043+440.689+409.049+440.689+410.385L440.689+413.224C440.689+414.394+441.357+414.898+442.527+414.898L443.699+414.898C444.869+414.898+445.366+414.23+445.366+413.061L445.366+365.416C445.366+364.245+443.525+363.577+442.356+363.577L441.023+363.577ZM311.131+363.748C309.961+363.748+310.635+364.416+310.635+365.587L310.635+406.54C310.635+414.564+315.979+415.566+318.988+415.566C320.325+415.566+320.826+414.898+320.826+413.729L320.826+412.556C320.826+411.387+320.158+410.89+319.322+410.89C317.65+410.722+315.483+410.218+315.483+405.537L315.483+365.587C315.483+364.416+313.643+363.748+312.473+363.748L311.131+363.748ZM251.123+368.092C249.952+368.092+249.284+368.76+249.284+369.93L249.284+378.624L249.284+382.804L249.284+401.692C249.284+410.385+254.136+415.232+262.16+415.232C263.664+415.232+264.161+414.735+264.161+413.566L264.161+412.556C264.161+411.22+263.664+410.886+262.16+410.719C259.318+410.552+254.132+409.55+254.132+401.024L254.132+382.633L261.655+382.633C262.825+382.633+263.493+382.136+263.493+380.966L263.493+380.462C263.493+379.293+262.825+378.624+261.655+378.624L254.132+378.624L254.132+369.93C254.132+368.76+253.635+368.092+252.465+368.092L251.123+368.092ZM184.542+377.452C174.512+377.452+166.482+384.645+166.315+396.681C166.315+408.046+174.677+415.9+185.542+415.9C191.393+415.9+195.737+413.395+197.743+411.892C198.579+411.22+198.748+410.385+198.247+409.546L197.743+408.718C197.241+407.716+196.411+407.545+195.409+408.213C193.737+409.55+190.386+411.558+185.705+411.558C178.183+411.558+171.663+406.206+171.496+396.845L198.076+396.845C199.079+396.845+199.914+396.01+199.914+395.004C199.914+384.474+194.405+377.452+184.542+377.452ZM288.398+377.452C277.532+377.452+269.175+385.476+269.008+396.845C269.008+408.21+277.37+416.071+288.235+416.071C294.922+416.071+299.435+412.89+301.273+411.387C302.11+410.552+302.271+409.884+301.77+408.882L301.273+408.213C300.605+407.211+299.934+407.041+298.931+407.709C297.259+409.216+293.751+411.558+288.569+411.558C280.545+411.558+274.189+405.537+274.189+396.845C274.189+387.985+280.545+381.969+288.569+381.969C292.915+381.969+296.088+384.14+297.76+385.309C298.763+385.977+299.596+385.981+300.265+384.975L300.769+384.14C301.605+383.138+301.434+382.303+300.598+381.635C298.759+380.131+294.75+377.452+288.398+377.452ZM344.901+377.452C334.203+377.452+325.511+385.643+325.511+396.511C325.511+407.542+334.203+415.9+344.901+415.9C355.6+415.9+364.292+407.542+364.292+396.511C364.292+385.643+355.6+377.452+344.901+377.452ZM236.759+378.013C236.349+378.081+235.956+378.354+235.579+378.802L228.813+386.862L223.753+392.9L216.084+383.763L211.927+378.802C211.551+378.354+211.125+378.109+210.683+378.07C210.241+378.035+209.781+378.198+209.333+378.575L208.308+379.438C207.412+380.192+207.459+381.023+208.21+381.919L214.978+389.979L220.59+396.674L212.375+406.458C212.366+406.465+212.362+406.476+212.358+406.479L208.21+411.415C207.458+412.311+207.542+413.256+208.438+414.01L209.463+414.863C210.359+415.616+211.175+415.428+211.927+414.532L218.686+406.469L223.753+400.434L231.423+409.578C231.427+409.585+231.436+409.592+231.44+409.596L235.58+414.539C236.332+415.435+237.278+415.513+238.174+414.76L239.199+413.907C240.095+413.153+240.049+412.322+239.297+411.426L232.529+403.355L226.917+396.671L235.132+386.876C235.141+386.869+235.145+386.862+235.149+386.855L239.297+381.919C240.049+381.023+239.965+380.078+239.069+379.325L238.044+378.472C237.596+378.095+237.168+377.949+236.759+378.017L236.759+378.013ZM374.158+378.29C372.986+378.29+372.481+378.959+372.481+380.131L372.481+401.692C372.481+411.22+379.503+415.9+388.196+415.9C396.889+415.9+403.911+411.22+403.911+401.692L403.911+380.131C404.078+378.959+403.413+378.29+402.241+378.29L400.901+378.29C399.732+378.29+399.063+378.959+399.063+380.131L399.063+400.356C399.063+406.042+395.385+411.224+388.196+411.224C381.174+411.224+377.328+406.042+377.328+400.356L377.328+380.131C377.328+378.959+376.66+378.29+375.491+378.29L374.158+378.29ZM184.371+381.635C189.721+381.635+194.399+385.476+194.733+393.167L171.667+393.167C172.837+385.643+178.186+381.635+184.371+381.635ZM344.901+381.969C352.758+381.969+359.11+388.152+359.11+396.511C359.11+405.203+352.758+411.558+344.901+411.558C337.045+411.558+330.688+405.036+330.522+396.511C330.522+388.319+337.045+381.969+344.901+381.969ZM428.653+381.969C436.51+381.969+440.355+389.158+440.355+396.681C440.355+407.211+434.666+411.558+428.482+411.558C421.627+411.558+416.953+405.708+416.786+396.681C416.786+387.321+422.131+381.969+428.653+381.969Z" fill-rule="evenodd" fill="#ffffff" opacity="1"/>
</g>
</svg>
