<?xml version="1.0" encoding="UTF-8" standalone="no"?>
<!DOCTYPE svg PUBLIC "-//W3C//DTD SVG 1.1//EN" "http://www.w3.org/Graphics/SVG/1.1/DTD/svg11.dtd">
<!-- Created with Vectornator (http://vectornator.io/) -->
<svg height="100%" stroke-miterlimit="10" style="fill-rule:nonzero;clip-rule:evenodd;stroke-linecap:round;stroke-linejoin:round;" version="1.1" viewBox="0 0 566.93 566.93" width="100%" xml:space="preserve" xmlns="http://www.w3.org/2000/svg" xmlns:vectornator="http://vectornator.io" xmlns:xlink="http://www.w3.org/1999/xlink">
<defs>
<linearGradient gradientTransform="matrix(0.708663 0 0 0.708663 -0.0709839 0)" gradientUnits="userSpaceOnUse" id="LinearGradient" x1="0" x2="800.1" y1="400" y2="400">
<stop offset="0.0218447" stop-color="#34b2f6"/>
<stop offset="1" stop-color="#0073aa"/>
</linearGradient>
</defs>
<clipPath id="ArtboardFrame">
<rect height="566.93" width="566.93" x="0" y="0"/>
</clipPath>
<g clip-path="url(#ArtboardFrame)" id="Untitled-kopieren" vectornator:layerName="Untitled kopieren">
<path d="M452.339 0L114.449 0C51.1653 0-0.0709839 51.2363-0.0709839 114.52L-0.0709839 452.481C-0.0709839 515.694 51.1653 566.93 114.449 566.93L452.41 566.93C515.623 566.93 566.93 515.694 566.93 452.41L566.93 114.52C566.859 51.2363 515.623 0 452.339 0Z" fill="url(#LinearGradient)" fill-rule="evenodd" opacity="1" stroke="none" vectornator:layerName="path"/>
<path d="M418.788 56.3655L148.085 56.3655C97.3853 56.3655 56.337 97.4137 56.337 148.114L56.337 418.873C56.337 469.517 97.3853 510.565 148.085 510.565L418.845 510.565C469.488 510.565 510.593 469.517 510.593 418.816L510.593 148.114C510.536 97.4137 469.488 56.3655 418.788 56.3655Z" fill="#ffffff" fill-rule="evenodd" opacity="1" stroke="none" vectornator:layerName="path"/>
<g opacity="1" vectornator:layerName="g">
<path d="M251.432 169.26C253.905 168.816 256.062 167.23 257.203 164.947L283.398 112.557L309.592 165.01C310.734 167.357 312.954 168.943 315.491 169.323L373.525 177.695L331.601 218.223C329.698 220 328.874 222.663 329.318 225.2L339.212 282.601L288.408 256.152C286.126 255.01 283.462 255.01 281.242 256.152L227.774 282.981L237.732 225.327C238.112 222.79 237.161 220.189 235.258 218.477L193.334 177.949L251.432 169.26Z" fill="#ffffff" fill-rule="evenodd" opacity="1" stroke="none" vectornator:layerName="path"/>
<path d="M132.856 454.372L80.4669 454.372L80.4669 318.135L132.856 318.135L132.856 454.372ZM481.568 308.178L480.807 308.938C479.919 309.953 393.343 409.087 344.57 430.208C318.883 441.371 276.578 449.235 241.821 449.235C205.161 449.235 150.995 435.789 150.489 435.725C149.854 435.662 149.22 435.662 148.586 435.725L148.586 351.814C154.294 345.281 174.463 323.97 200.277 318.325C230.278 311.793 245.056 318.325 257.931 324.16C263.512 326.888 269.347 328.918 275.436 330.249C287.804 331.391 300.299 330.757 312.477 328.346C327.699 326.253 345.013 323.843 354.401 327.776C358.46 330.122 361.441 333.992 362.583 338.558C364.104 344.837 362.519 351.497 358.333 356.381C346.409 372.427 273.724 396.402 243.914 394.055C239.601 393.738 235.795 396.973 235.478 401.286C235.161 405.599 238.396 409.404 242.709 409.722C244.358 409.722 246.134 409.722 247.973 409.722C280.51 409.722 342.667 390.567 365.374 371.349L365.88 371.095L461.462 285.154C464.317 282.617 468.122 281.286 471.928 281.476C475.987 281.729 479.792 283.632 482.393 286.74C488.037 292.892 487.657 302.47 481.568 308.178Z" fill="#ffffff" fill-rule="evenodd" opacity="1" stroke="none" vectornator:layerName="path"/>
</g>
<g opacity="1">
<path d="M471.467 325.372C465.692 355.085 419.739 387.603 366.962 393.905C339.441 397.189 312.344 400.208 283.45 398.882C236.197 396.717 198.911 387.603 198.911 387.603C198.911 392.203 199.194 396.583 199.762 400.68C205.905 447.313 246.003 450.107 283.986 451.41C322.323 452.721 356.459 441.958 356.459 441.958L358.034 476.616C358.034 476.616 331.219 491.015 283.45 493.664C257.109 495.111 224.403 493.001 186.309 482.918C103.689 461.05 89.4802 372.982 87.3061 283.622C86.6434 257.09 87.0519 232.072 87.0519 211.149C87.0519 119.774 146.921 92.9902 146.921 92.9902C177.108 79.1264 228.907 73.2963 282.758 72.8561L284.081 72.8561C337.932 73.2963 389.765 79.1264 419.95 92.9902C419.95 92.9902 479.817 119.774 479.817 211.149C479.817 211.149 480.568 278.566 471.467 325.372" fill="#2b90d9" fill-rule="nonzero" opacity="1" stroke="none" vectornator:layerName="path"/>
<path d="M409.199 218.237L409.199 328.877L365.366 328.877L365.366 221.489C365.366 198.852 355.841 187.362 336.79 187.362C315.725 187.362 305.168 200.992 305.168 227.944L305.168 286.723L261.593 286.723L261.593 227.944C261.593 200.992 251.034 187.362 229.969 187.362C210.918 187.362 201.393 198.852 201.393 221.489L201.393 328.877L157.56 328.877L157.56 218.237C157.56 195.625 163.317 177.656 174.882 164.362C186.808 151.068 202.426 144.253 221.813 144.253C244.244 144.253 261.23 152.874 272.461 170.119L283.38 188.422L294.3 170.119C305.529 152.874 322.515 144.253 344.948 144.253C364.333 144.253 379.951 151.068 391.879 164.362C403.442 177.656 409.199 195.625 409.199 218.237" fill="#ffffff" fill-rule="nonzero" opacity="1" stroke="none" vectornator:layerName="path"/>
</g>
</g>
</svg>
