<?xml version="1.0" encoding="UTF-8" standalone="no"?> <!-- Created with Vectornator for iOS (http://vectornator.io/) --><!DOCTYPE svg PUBLIC "-//W3C//DTD SVG 1.1//EN" "http://www.w3.org/Graphics/SVG/1.1/DTD/svg11.dtd">
<svg height="100%" style="fill-rule:nonzero;clip-rule:evenodd;stroke-linecap:round;stroke-linejoin:round;" xmlns:xlink="http://www.w3.org/1999/xlink" xmlns="http://www.w3.org/2000/svg" xml:space="preserve" width="100%" xmlns:vectornator="http://vectornator.io" version="1.1" viewBox="0 0 566.93 566.93">
<metadata>
<vectornator:setting key="DimensionsVisible" value="0"/>
<vectornator:setting key="PencilOnly" value="0"/>
<vectornator:setting key="SnapToPoints" value="0"/>
<vectornator:setting key="OutlineMode" value="0"/>
<vectornator:setting key="CMYKEnabledKey" value="0"/>
<vectornator:setting key="RulersVisible" value="1"/>
<vectornator:setting key="SnapToEdges" value="0"/>
<vectornator:setting key="GuidesVisible" value="1"/>
<vectornator:setting key="DisplayWhiteBackground" value="0"/>
<vectornator:setting key="doHistoryDisabled" value="0"/>
<vectornator:setting key="SnapToGuides" value="1"/>
<vectornator:setting key="TimeLapseWatermarkDisabled" value="0"/>
<vectornator:setting key="Units" value="Points"/>
<vectornator:setting key="DynamicGuides" value="1"/>
<vectornator:setting key="IsolateActiveLayer" value="0"/>
<vectornator:setting key="SnapToGrid" value="0"/>
</metadata>
<defs>
<linearGradient y1="400" id="LinearGradient" x1="0" y2="400" x2="800.1" gradientUnits="userSpaceOnUse" gradientTransform="matrix(0.708663 0 0 0.708663 -0.0709839 -0.268568)">
<stop stop-color="#34b2f6" offset="0.0218447"/>
<stop stop-color="#0073aa" offset="1"/>
</linearGradient>
</defs>
<g id="Ebene 1" vectornator:layerName="Ebene 1">
<path d="M452.339-0.268568L114.449-0.268568C51.1653-0.268568-0.0709839+50.9677-0.0709839+114.251L-0.0709839+452.212C-0.0709839+515.425+51.1653+566.661+114.449+566.661L452.41+566.661C515.623+566.661+566.93+515.425+566.93+452.141L566.93+114.251C566.859+50.9677+515.623-0.268568+452.339-0.268568Z" fill-rule="evenodd" fill="url(#LinearGradient)" opacity="1"/>
<g opacity="1">
<path d="M176.06+333.344L176.06+297.669C176.06+290.213+172.984+286.484+166.833+286.481C160.681+286.479+157.599+290.209+157.586+297.669L157.586+333.344L139.412+333.344L139.412+297.669C139.412+290.213+136.384+286.484+130.327+286.481C124.165+286.481+121.089+290.21+121.1+297.669L121.1+333.344L102.923+333.344L102.923+295.563C102.923+287.78+105.625+281.889+111.03+277.89C115.788+274.321+122.221+272.535+130.327+272.535C138.546+272.535+144.601+274.644+148.491+278.86C151.843+274.644+157.953+272.535+166.82+272.535C174.926+272.535+181.356+274.321+186.11+277.89C191.515+281.887+194.218+287.777+194.22+295.563L194.22+333.344L176.06+333.344Z" fill-rule="evenodd" fill="#ffffff" opacity="1"/>
<path d="M398.656+333.18L398.656+231.265L416.833+231.265L416.833+333.18L398.656+333.18Z" fill-rule="evenodd" fill="#ffffff" opacity="1"/>
<path d="M375.49+333.18L375.49+327.176C373.866+329.337+371.108+331.068+367.215+332.369C364.036+333.506+360.689+334.109+357.312+334.152C348.657+334.152+341.706+331.176+336.46+325.225C331.213+319.273+328.589+311.914+328.587+303.146C328.587+294.495+331.144+287.229+336.298+281.397C340.862+276.24+348.276+272.635+356.825+272.635C366.454+272.635+372.076+276.26+375.49+280.421L375.49+231.265L393.179+231.265L393.179+333.18L375.49+333.18ZM375.49+299.264C375.49+296.017+373.952+292.905+370.876+289.929C367.8+286.952+364.637+285.463+361.385+285.463C356.737+285.463+353.059+287.357+350.353+291.145C347.969+294.505+346.778+298.617+346.781+303.478C346.781+308.242+347.971+312.299+350.353+315.652C353.055+319.551+356.732+321.499+361.385+321.494C364.199+321.494+367.257+320.169+370.556+317.517C373.856+314.865+375.504+312.135+375.5+309.325L375.49+299.264Z" fill-rule="evenodd" fill="#ffffff" opacity="1"/>
<path d="M294.349+334.801C285.15+334.801+277.55+331.88+271.548+326.039C265.546+320.197+262.539+312.677+262.525+303.478C262.525+294.29+265.529+286.77+271.535+280.922C277.541+275.074+285.142+272.153+294.336+272.16C303.529+272.16+311.157+275.081+317.218+280.922C323.279+286.764+326.309+294.283+326.307+303.478C326.307+312.679+323.277+320.199+317.218+326.039C311.159+331.878+303.536+334.799+294.349+334.801ZM294.349+286.765C289.968+286.765+286.601+288.424+284.248+291.741C281.896+295.058+280.719+298.999+280.719+303.565C280.719+308.13+281.818+311.989+284.015+315.141C286.532+318.731+289.981+320.524+294.362+320.519C298.743+320.514+302.191+318.722+304.706+315.141C307.004+311.991+308.153+308.132+308.153+303.565C308.153+298.997+307.054+295.138+304.857+291.988C302.34+288.504+298.837+286.763+294.349+286.765Z" fill-rule="evenodd" fill="#ffffff" opacity="1"/>
<path d="M228.627+334.801C219.431+334.801+211.829+331.88+205.823+326.039C199.817+320.197+196.815+312.677+196.817+303.478C196.817+294.29+199.819+286.77+205.823+280.922C211.827+275.074+219.429+272.153+228.627+272.16C237.816+272.16+245.444+275.081+251.509+280.922C257.575+286.764+260.603+294.283+260.595+303.478C260.595+312.679+257.566+320.199+251.509+326.039C245.453+331.878+237.825+334.799+228.627+334.801ZM228.627+286.765C224.246+286.765+220.878+288.424+218.523+291.741C216.168+295.058+214.991+298.999+214.994+303.565C214.994+308.13+216.093+311.989+218.289+315.141C220.807+318.731+224.257+320.524+228.64+320.519C233.023+320.514+236.471+318.722+238.984+315.141C241.277+311.991+242.424+308.132+242.424+303.565C242.424+298.997+241.326+295.138+239.129+291.988C236.616+288.504+233.115+286.763+228.627+286.765Z" fill-rule="evenodd" fill="#ffffff" opacity="1"/>
<path d="M438.358+308.998C438.746+313.325+444.372+322.631+453.619+322.631C462.618+322.631+466.875+317.435+467.086+315.329L486.235+315.164C484.146+321.553+475.657+335.127+453.283+335.127C443.976+335.127+435.461+332.231+429.345+326.444C423.229+320.657+420.178+313.115+420.178+303.805C420.178+294.176+423.233+286.522+429.345+280.843C435.457+275.164+443.383+272.325+453.124+272.325C463.724+272.325+472+275.84+477.951+282.87C483.472+289.357+486.231+298.066+486.229+308.995L438.358+308.998ZM468.059+297.794C467.301+293.896+465.676+290.713+463.191+288.219C460.375+285.516+457.129+284.164+453.453+284.162C449.664+284.162+446.499+285.46+443.956+288.057C441.415+290.653+439.712+293.899+438.849+297.794L468.059+297.794Z" fill-rule="evenodd" fill="#ffffff" opacity="1"/>
<path d="M138.206+269.787L156.245+256.606L156.014+255.802C123.463+259.793+108.66+262.62+80.6237+278.873L80.884+279.611L83.1117+279.634C82.9073+281.878+82.5514+287.424+83.0062+295.764C79.8954+304.768+82.9271+310.884+85.7743+317.537C86.2257+310.616+86.1796+303.037+84.0541+295.494C83.6092+287.21+83.975+281.762+84.176+279.644L102.762+279.822C102.712+283.461+102.896+287.1+103.312+290.716C119.92+296.552+136.624+290.696+145.492+276.309C143.03+273.55+138.206+269.787+138.206+269.787Z" fill-rule="evenodd" fill="#ffffff" opacity="1"/>
</g>
</g>
</svg>
