<?xml version="1.0" encoding="UTF-8" standalone="no"?> <!-- Created with Vectornator for iOS (http://vectornator.io/) --><!DOCTYPE svg PUBLIC "-//W3C//DTD SVG 1.1//EN" "http://www.w3.org/Graphics/SVG/1.1/DTD/svg11.dtd">
<svg height="100%" style="fill-rule:nonzero;clip-rule:evenodd;stroke-linecap:round;stroke-linejoin:round;" xmlns:xlink="http://www.w3.org/1999/xlink" xmlns="http://www.w3.org/2000/svg" xml:space="preserve" width="100%" xmlns:vectornator="http://vectornator.io" version="1.1" viewBox="0 0 566.93 566.93">
<metadata>
<vectornator:setting key="DimensionsVisible" value="0"/>
<vectornator:setting key="PencilOnly" value="0"/>
<vectornator:setting key="SnapToPoints" value="0"/>
<vectornator:setting key="OutlineMode" value="0"/>
<vectornator:setting key="CMYKEnabledKey" value="0"/>
<vectornator:setting key="RulersVisible" value="1"/>
<vectornator:setting key="SnapToEdges" value="0"/>
<vectornator:setting key="GuidesVisible" value="1"/>
<vectornator:setting key="DisplayWhiteBackground" value="0"/>
<vectornator:setting key="doHistoryDisabled" value="0"/>
<vectornator:setting key="SnapToGuides" value="1"/>
<vectornator:setting key="TimeLapseWatermarkDisabled" value="0"/>
<vectornator:setting key="Units" value="Points"/>
<vectornator:setting key="DynamicGuides" value="1"/>
<vectornator:setting key="IsolateActiveLayer" value="0"/>
<vectornator:setting key="SnapToGrid" value="0"/>
</metadata>
<defs>
<linearGradient y1="400" id="LinearGradient" x1="0" y2="400" x2="800.1" gradientUnits="userSpaceOnUse" gradientTransform="matrix(0.708663 0 0 0.708663 -0.0709839 -0.268568)">
<stop stop-color="#34b2f6" offset="0.0218447"/>
<stop stop-color="#0073aa" offset="1"/>
</linearGradient>
</defs>
<g id="Ebene 1" vectornator:layerName="Ebene 1">
<path d="M452.339-0.268568L114.449-0.268568C51.1653-0.268568-0.0709839+50.9677-0.0709839+114.251L-0.0709839+452.212C-0.0709839+515.425+51.1653+566.661+114.449+566.661L452.41+566.661C515.623+566.661+566.93+515.425+566.93+452.141L566.93+114.251C566.859+50.9677+515.623-0.268568+452.339-0.268568Z" fill-rule="evenodd" fill="url(#LinearGradient)" opacity="1"/>
<path stroke="#ffffff" fill-rule="evenodd" stroke-width="12.0353" d="M202.772+88.2539C199.384+89.463+193.923+94.7339+138.967+149.834C90.8489+198.078+87.782+201.265+87.0456+203.799C86.1531+206.874+86.6944+361.81+87.6049+363.723C88.5164+365.638+187.181+464.625+188.18+464.625C189.133+464.625+190.116+463.344+190.819+461.18C191.375+459.469+191.473+451.601+191.696+391.387C191.899+336.349+192.047+323.296+192.474+322.327C192.898+321.365+192.91+320.516+192.534+317.949C192.201+315.658+192.106+305.379+192.198+281.33L192.326+247.894L193.236+245.905C194.542+243.046+241.479+196.151+244.469+194.716L246.459+193.762L279.912+193.564C317.322+193.341+315.52+193.488+315.518+190.668C315.514+188.317+314.112+186.843+268.619+141.377C243.733+116.506+221.747+94.4363+219.758+92.3348C217.77+90.2331+215.653+88.3265+215.055+88.0997C213.47+87.4966+204.581+87.6081+202.772+88.2539" fill="#ffffff" stroke-linecap="butt" opacity="1" stroke-linejoin="miter"/>
<path stroke="#ffffff" fill-rule="evenodd" stroke-width="12.0353" d="M476.759+217.686C472.495+219.722+381.699+310.313+377.066+317.153C374.142+321.47+331.695+364.828+325.045+370.291C323.844+371.276+322.077+372.737+321.117+373.538C318.132+376.027+319.17+375.952+287.413+376.009C259.666+376.06+258.348+376.095+257.834+376.798C256.713+378.33+260.598+383.42+265.791+387.222C266.661+387.86+267.904+389.013+268.555+389.785C269.205+390.555+272.164+393.651+275.132+396.663C278.099+399.674+281.243+402.866+282.119+403.757C282.994+404.648+287.396+408.991+291.9+413.408C296.404+417.824+300.425+421.957+300.839+422.59C301.253+423.225+302.863+424.747+304.418+425.974C305.973+427.201+308.417+429.549+309.849+431.19C311.281+432.832+313.84+435.417+315.537+436.935C317.232+438.452+319.332+440.657+320.202+441.835C321.073+443.012+322.884+444.815+324.228+445.842C325.573+446.869+327.394+448.509+328.277+449.485C329.754+451.122+349.893+471.225+352.119+473.286C354.302+475.309+357.583+475.885+360.681+474.793C361.583+474.474+362.322+474.286+362.322+474.375C362.322+474.635+364.338+473.685+366.703+472.308C367.906+471.608+370.503+469.383+372.473+467.364C374.443+465.345+378.59+461.08+381.687+457.89C388.984+450.371+391.939+447.41+394.823+444.723C396.117+443.52+397.904+441.728+398.797+440.743C399.688+439.758+402.013+437.429+403.96+435.568C405.906+433.707+408.305+431.319+409.291+430.259C413.85+425.357+442.848+397.006+447.951+392.463C451.098+389.661+455.284+385.561+457.254+383.351C460.515+379.695+461.086+379.235+463.623+378.223C466.054+377.253+466.893+376.613+470.198+373.203C472.283+371.054+475.418+368.008+477.164+366.436L480.34+363.575L480.338+291.009C480.336+243.944+480.197+218.074+479.939+217.397L479.545+216.356L476.759+217.686" fill="#ffffff" stroke-linecap="butt" opacity="1" stroke-linejoin="miter"/>
<path stroke="#ffffff" fill-rule="evenodd" stroke-width="12.0353" d="M215.175+88.1166C215.702+88.3286+217.762+90.2242+219.752+92.3288C221.744+94.4334+243.733+116.506+268.619+141.377C293.504+166.248+314.236+187.225+314.69+187.99C315.762+189.799+315.77+191.747+314.713+192.49C313.974+193.007+314.131+193.075+316.603+193.321C321.662+193.823+321.117+193.357+347.414+219.72C370.384+242.749+371.59+244.031+372.445+246.303C374.327+251.303+373.994+315.567+372.068+319.342C370.849+321.731+322.946+369.974+320.095+371.683L318.105+372.879L285.267+373.087L252.429+373.294L284.671+373.379C319.748+373.47+320.034+373.454+322.973+371.276C327.737+367.743+373.153+321.424+376.041+317.153C380.658+310.324+471.455+219.725+475.727+217.686L478.514+216.356L478.908+217.397C479.165+218.074+479.305+243.944+479.306+291.009L479.31+363.575L476.138+366.436C474.395+368.008+470.823+371.535+468.204+374.271C465.584+377.008+442.067+400.651+415.945+426.812C389.824+452.973+368.325+474.557+368.17+474.775C368.016+474.994+389.645+453.479+416.236+426.963C442.827+400.447+466.194+377.359+468.164+375.655C476.772+368.214+478.94+365.732+479.733+362.412C480.467+359.343+480.573+209.077+479.846+204.669L479.386+201.888L472.056+194.641C468.026+190.654+446.067+168.792+423.259+146.057C381.2+104.134+366.968+90.3864+363.955+88.7763L362.287+87.8847L288.253+87.8081C240.247+87.7584+214.554+87.8668+215.175+88.1166" fill="#ffffff" stroke-linecap="butt" opacity="1" stroke-linejoin="miter"/>
<path stroke="#ffffff" fill-rule="evenodd" stroke-width="12.0353" d="M192.556+321.792C192.099+323.223+191.958+335.252+191.724+391.387C191.407+467.828+191.607+463.648+188.227+464.679C186.938+465.073+200.981+478.061+203.083+478.42C205.37+478.807+355.409+478.764+360.496+478.374C362.503+478.22+364.285+477.856+364.875+477.48C366.397+476.508+464.985+377.924+464.71+377.649C463.795+376.735+459.661+379.519+456.224+383.362C454.253+385.566+450.066+389.661+446.92+392.463C441.816+397.006+412.82+425.357+408.26+430.259C407.276+431.319+404.876+433.707+402.929+435.568C400.981+437.429+398.658+439.758+397.766+440.743C396.873+441.728+395.085+443.52+393.793+444.723C390.909+447.41+387.954+450.371+380.656+457.89C377.559+461.08+373.412+465.345+371.442+467.364C369.472+469.383+366.875+471.608+365.673+472.308C363.307+473.685+361.292+474.635+361.292+474.375C361.292+474.286+360.553+474.474+359.65+474.793C356.551+475.885+353.27+475.309+351.087+473.286C348.861+471.225+328.724+451.122+327.247+449.485C326.364+448.509+324.541+446.869+323.197+445.842C321.852+444.815+320.041+443.012+319.171+441.835C318.302+440.657+316.201+438.452+314.506+436.935C312.809+435.417+310.25+432.832+308.818+431.19C307.386+429.549+304.942+427.201+303.387+425.974C301.833+424.747+300.222+423.225+299.809+422.59C299.394+421.957+295.372+417.824+290.869+413.408C286.365+408.991+281.963+404.648+281.088+403.757C280.212+402.866+277.067+399.674+274.101+396.663C271.133+393.651+268.163+390.544+267.499+389.757C266.837+388.969+265.324+387.599+264.138+386.713C259.236+383.049+255.713+378.287+256.803+376.798C257.317+376.095+258.637+376.06+286.449+376.009C318.324+375.952+317.751+375.992+319.936+373.605L320.891+372.56L319.897+372.905C318.42+373.414+255.667+373.591+250.734+373.099C248.055+372.832+246.073+372.403+244.964+371.851C243.298+371.02+194.961+323.087+193.68+320.996C193.11+320.069+193.105+320.073+192.556+321.792" fill="#ffffff" stroke-linecap="butt" opacity="1" stroke-linejoin="miter"/>
</g>
</svg>
