<?xml version="1.0" encoding="UTF-8" standalone="no"?> <!-- Created with Vectornator for iOS (http://vectornator.io/) --><!DOCTYPE svg PUBLIC "-//W3C//DTD SVG 1.1//EN" "http://www.w3.org/Graphics/SVG/1.1/DTD/svg11.dtd">
<svg height="100%" style="fill-rule:nonzero;clip-rule:evenodd;stroke-linecap:round;stroke-linejoin:round;" xmlns:xlink="http://www.w3.org/1999/xlink" xmlns="http://www.w3.org/2000/svg" xml:space="preserve" width="100%" xmlns:vectornator="http://vectornator.io" version="1.1" viewBox="0 0 566.93 566.93">
<metadata>
<vectornator:setting key="DimensionsVisible" value="0"/>
<vectornator:setting key="PencilOnly" value="0"/>
<vectornator:setting key="SnapToPoints" value="0"/>
<vectornator:setting key="OutlineMode" value="0"/>
<vectornator:setting key="CMYKEnabledKey" value="0"/>
<vectornator:setting key="RulersVisible" value="1"/>
<vectornator:setting key="SnapToEdges" value="0"/>
<vectornator:setting key="GuidesVisible" value="0"/>
<vectornator:setting key="DisplayWhiteBackground" value="0"/>
<vectornator:setting key="doHistoryDisabled" value="0"/>
<vectornator:setting key="SnapToGuides" value="1"/>
<vectornator:setting key="TimeLapseWatermarkDisabled" value="0"/>
<vectornator:setting key="Units" value="Points"/>
<vectornator:setting key="DynamicGuides" value="1"/>
<vectornator:setting key="IsolateActiveLayer" value="0"/>
<vectornator:setting key="SnapToGrid" value="0"/>
</metadata>
<defs>
<linearGradient y1="400" id="LinearGradient" x1="0" y2="400" x2="800.1" gradientUnits="userSpaceOnUse" gradientTransform="matrix(0.708663 0 0 0.708663 0 0)">
<stop stop-color="#34b2f6" offset="0.0218447"/>
<stop stop-color="#0073aa" offset="1"/>
</linearGradient>
<linearGradient y1="101.064" id="LinearGradient_2" x1="150.846" y2="101.064" x2="416.084" gradientUnits="userSpaceOnUse" gradientTransform="matrix(1 0 0 1 0 0)">
<stop stop-color="#34b2f6" offset="0"/>
<stop stop-color="#0073aa" offset="1"/>
</linearGradient>
<linearGradient y1="101.064" id="LinearGradient_3" x1="150.846" y2="101.064" x2="416.084" gradientUnits="userSpaceOnUse" gradientTransform="matrix(1 0 0 1 0 0)">
<stop stop-color="#34b2f6" offset="0"/>
<stop stop-color="#0073aa" offset="1"/>
</linearGradient>
<linearGradient y1="101.064" id="LinearGradient_4" x1="150.846" y2="101.064" x2="416.084" gradientUnits="userSpaceOnUse" gradientTransform="matrix(1 0 0 1 0 0)">
<stop stop-color="#34b2f6" offset="0"/>
<stop stop-color="#0073aa" offset="1"/>
</linearGradient>
<linearGradient y1="101.064" id="LinearGradient_5" x1="150.846" y2="101.064" x2="416.084" gradientUnits="userSpaceOnUse" gradientTransform="matrix(1 0 0 1 0 0)">
<stop stop-color="#34b2f6" offset="0"/>
<stop stop-color="#0073aa" offset="1"/>
</linearGradient>
<linearGradient y1="101.064" id="LinearGradient_6" x1="150.846" y2="101.064" x2="416.084" gradientUnits="userSpaceOnUse" gradientTransform="matrix(1 0 0 1 0 0)">
<stop stop-color="#34b2f6" offset="0"/>
<stop stop-color="#0073aa" offset="1"/>
</linearGradient>
<linearGradient y1="101.064" id="LinearGradient_7" x1="150.846" y2="101.064" x2="416.084" gradientUnits="userSpaceOnUse" gradientTransform="matrix(1 0 0 1 0 0)">
<stop stop-color="#34b2f6" offset="0"/>
<stop stop-color="#0073aa" offset="1"/>
</linearGradient>
<linearGradient y1="101.064" id="LinearGradient_8" x1="150.846" y2="101.064" x2="416.084" gradientUnits="userSpaceOnUse" gradientTransform="matrix(1 0 0 1 0 0)">
<stop stop-color="#34b2f6" offset="0"/>
<stop stop-color="#0073aa" offset="1"/>
</linearGradient>
</defs>
<g id="Ebene 1" vectornator:layerName="Ebene 1">
<path d="M452.41+0L114.52+0C51.2363+0+0+51.2363+0+114.52L0+452.481C0+515.694+51.2363+566.93+114.52+566.93L452.481+566.93C515.694+566.93+567.001+515.694+567.001+452.41L567.001+114.52C566.93+51.2363+515.694+0+452.41+0Z" opacity="1" fill="url(#LinearGradient)"/>
<path stroke="#ffffff" stroke-width="2" d="M148.405+216.164C111.261+216.164+80.8579+245.248+80.8579+280.781C80.8579+316.314+111.261+345.398+148.405+345.398L418.595+345.398C455.74+345.398+486.143+316.314+486.143+280.781C486.143+245.248+455.74+216.164+418.595+216.164L148.405+216.164Z" fill="#ffffff" stroke-linecap="butt" opacity="1" stroke-linejoin="miter"/>
<g opacity="1">
<path d="M163.838+267.791C166.178+266.171+168.945+264.753+172.14+263.538C175.335+262.323+178.823+261.716+182.603+261.716C186.293+261.716+188.723+262.256+189.893+263.336C191.063+264.416+191.648+266.126+191.648+268.466C191.648+269.366+191.558+270.626+191.378+272.246C191.198+273.866+190.793+275.531+190.163+277.241C189.173+276.791+188.273+276.498+187.463+276.363C186.653+276.228+185.888+276.161+185.168+276.161C184.358+276.161+183.413+276.341+182.333+276.701C181.253+277.061+180.263+277.601+179.363+278.321L179.228+327.866C179.228+328.586+179.138+329.126+178.958+329.486C178.778+329.846+178.215+330.093+177.27+330.228C176.325+330.363+174.818+330.453+172.748+330.498C170.678+330.543+167.708+330.566+163.838+330.566L163.838+267.791Z" opacity="1" fill="url(#LinearGradient_2)"/>
<path d="M217.028+261.716C222.428+261.716+226.658+263.426+229.718+266.846C232.778+270.266+234.308+275.891+234.308+283.721C234.308+286.961+234.173+290.313+233.903+293.778C233.633+297.243+233.138+300.281+232.418+302.891C230.798+303.251+228.975+303.543+226.95+303.768C224.925+303.993+222.855+304.196+220.74+304.376C218.625+304.556+216.555+304.691+214.53+304.781C212.505+304.871+210.683+304.916+209.063+304.916C209.243+309.236+209.94+312.363+211.155+314.298C212.37+316.233+214.598+317.201+217.838+317.201C220.268+317.201+222.675+316.863+225.06+316.188C227.445+315.513+229.808+314.591+232.148+313.421C232.598+314.771+232.913+316.413+233.093+318.348C233.273+320.283+233.363+322.016+233.363+323.546C233.363+324.896+232.868+326.088+231.878+327.123C230.888+328.158+229.515+329.036+227.76+329.756C226.005+330.476+223.958+331.016+221.618+331.376C219.278+331.736+216.803+331.916+214.193+331.916C211.133+331.916+208.32+331.466+205.755+330.566C203.19+329.666+200.985+328.023+199.14+325.638C197.295+323.253+195.855+319.991+194.82+315.851C193.785+311.711+193.268+306.446+193.268+300.056C193.268+291.866+193.92+285.273+195.225+280.278C196.53+275.283+198.263+271.413+200.423+268.668C202.583+265.923+205.103+264.078+207.983+263.133C210.863+262.188+213.878+261.716+217.028+261.716ZM215.003+274.811C212.933+274.811+211.448+276.296+210.548+279.266C209.648+282.236+209.108+286.826+208.928+293.036C210.818+293.036+212.708+292.946+214.598+292.766C216.488+292.586+217.928+292.271+218.918+291.821C219.188+291.011+219.368+289.908+219.458+288.513C219.548+287.118+219.593+285.881+219.593+284.801C219.593+282.641+219.503+280.908+219.323+279.603C219.143+278.298+218.873+277.286+218.513+276.566C218.153+275.846+217.68+275.373+217.095+275.148C216.51+274.923+215.813+274.811+215.003+274.811Z" opacity="1" fill="url(#LinearGradient_3)"/>
<path d="M256.583+327.866C256.583+328.586+256.493+329.126+256.313+329.486C256.133+329.846+255.57+330.093+254.625+330.228C253.68+330.363+252.195+330.453+250.17+330.498C248.145+330.543+245.243+330.566+241.463+330.566L241.463+237.956C241.463+236.336+241.665+235.076+242.07+234.176C242.475+233.276+243.24+232.623+244.365+232.218C245.49+231.813+247.043+231.566+249.023+231.476C251.003+231.386+253.523+231.341+256.583+231.341L256.583+327.866Z" opacity="1" fill="url(#LinearGradient_4)"/>
<path d="M280.883+327.866C280.883+328.586+280.793+329.126+280.613+329.486C280.433+329.846+279.87+330.093+278.925+330.228C277.98+330.363+276.45+330.453+274.335+330.498C272.22+330.543+269.273+330.566+265.493+330.566L265.493+269.681C265.493+268.061+265.718+266.801+266.168+265.901C266.618+265.001+267.405+264.348+268.53+263.943C269.655+263.538+271.208+263.291+273.188+263.201C275.168+263.111+277.733+263.066+280.883+263.066L280.883+327.866ZM266.168+243.356C266.168+240.206+266.82+237.663+268.125+235.728C269.43+233.793+271.523+232.826+274.403+232.826C277.193+232.826+279.083+233.546+280.073+234.986C281.063+236.426+281.558+238.991+281.558+242.681C281.558+246.371+280.86+249.228+279.465+251.253C278.07+253.278+276.068+254.291+273.458+254.291C271.208+254.291+269.43+253.526+268.125+251.996C266.82+250.466+266.168+247.586+266.168+243.356Z" opacity="1" fill="url(#LinearGradient_5)"/>
<path d="M304.913+327.866C304.913+328.586+304.823+329.126+304.643+329.486C304.463+329.846+303.9+330.093+302.955+330.228C302.01+330.363+300.525+330.453+298.5+330.498C296.475+330.543+293.573+330.566+289.793+330.566L289.793+237.956C289.793+236.336+289.995+235.076+290.4+234.176C290.805+233.276+291.57+232.623+292.695+232.218C293.82+231.813+295.373+231.566+297.353+231.476C299.333+231.386+301.853+231.341+304.913+231.341L304.913+327.866Z" opacity="1" fill="url(#LinearGradient_6)"/>
<path d="M312.338+270.356C312.338+269.546+312.495+268.668+312.81+267.723C313.125+266.778+313.598+266.081+314.228+265.631C315.218+264.911+317.468+264.078+320.978+263.133C324.488+262.188+328.943+261.716+334.343+261.716C340.553+261.716+344.94+262.931+347.505+265.361C350.07+267.791+351.353+272.066+351.353+278.186L351.353+284.531C351.353+288.401+351.353+292.361+351.353+296.411C351.353+300.461+351.33+304.376+351.285+308.156C351.24+311.936+351.173+315.491+351.083+318.821C350.993+322.151+350.858+325.076+350.678+327.596C348.338+328.946+345.525+330.003+342.24+330.768C338.955+331.533+335.288+331.916+331.238+331.916C328.718+331.916+326.31+331.691+324.015+331.241C321.72+330.791+319.695+329.846+317.94+328.406C316.185+326.966+314.768+324.851+313.688+322.061C312.608+319.271+312.068+315.536+312.068+310.856C312.068+306.266+312.495+302.508+313.35+299.583C314.205+296.658+315.353+294.386+316.793+292.766C318.233+291.146+319.898+290.043+321.788+289.458C323.678+288.873+325.613+288.581+327.593+288.581C328.583+288.581+329.955+288.716+331.71+288.986C333.465+289.256+334.973+289.796+336.233+290.606L336.233+281.291C336.233+279.491+335.805+278.208+334.95+277.443C334.095+276.678+332.633+276.296+330.563+276.296C328.043+276.296+325.275+276.566+322.26+277.106C319.245+277.646+316.613+278.321+314.363+279.131C313.553+277.601+313.013+276.026+312.743+274.406C312.473+272.786+312.338+271.436+312.338+270.356ZM336.233+300.731C335.783+300.281+335.22+299.988+334.545+299.853C333.87+299.718+333.263+299.651+332.723+299.651C331.193+299.651+330.023+300.371+329.213+301.811C328.403+303.251+327.998+306.131+327.998+310.451C327.998+313.691+328.29+316.008+328.875+317.403C329.46+318.798+330.608+319.496+332.318+319.496C332.948+319.496+333.6+319.383+334.275+319.158C334.95+318.933+335.513+318.596+335.963+318.146C336.053+317.426+336.12+316.368+336.165+314.973C336.21+313.578+336.233+312.071+336.233+310.451C336.233+308.831+336.233+307.166+336.233+305.456C336.233+303.746+336.233+302.171+336.233+300.731Z" opacity="1" fill="url(#LinearGradient_7)"/>
<path d="M359.723+238.091C359.723+236.381+359.925+235.076+360.33+234.176C360.735+233.276+361.478+232.623+362.558+232.218C363.638+231.813+365.168+231.566+367.148+231.476C369.128+231.386+371.693+231.341+374.843+231.341L374.843+265.631C376.283+264.371+377.97+263.403+379.905+262.728C381.84+262.053+383.978+261.716+386.318+261.716C389.018+261.716+391.313+262.188+393.203+263.133C395.093+264.078+396.668+265.631+397.928+267.791C399.188+269.951+400.11+272.786+400.695+276.296C401.28+279.806+401.573+284.081+401.573+289.121C401.573+298.751+400.763+306.378+399.143+312.003C397.523+317.628+395.453+321.926+392.933+324.896C390.413+327.866+387.6+329.778+384.495+330.633C381.39+331.488+378.398+331.916+375.518+331.916C371.918+331.916+368.768+331.556+366.068+330.836C363.368+330.116+361.253+329.126+359.723+327.866L359.723+238.091ZM374.843+317.606C375.563+318.326+376.553+318.686+377.813+318.686C378.443+318.686+379.14+318.348+379.905+317.673C380.67+316.998+381.39+315.693+382.065+313.758C382.74+311.823+383.303+309.101+383.753+305.591C384.203+302.081+384.428+297.491+384.428+291.821C384.428+285.611+384+281.291+383.145+278.861C382.29+276.431+381.008+275.216+379.298+275.216C377.588+275.216+376.103+275.846+374.843+277.106L374.843+317.606Z" opacity="1" fill="url(#LinearGradient_8)"/>
</g>
</g>
</svg>
